<?xml version="1.0" encoding="UTF-8" standalone="no"?>
<!-- Generator: Adobe Illustrator 19.0.0, SVG Export Plug-In . SVG Version: 6.00 Build 0)  -->

<svg
   xmlns:dc="http://purl.org/dc/elements/1.1/"
   xmlns:cc="http://creativecommons.org/ns#"
   xmlns:rdf="http://www.w3.org/1999/02/22-rdf-syntax-ns#"
   xmlns:svg="http://www.w3.org/2000/svg"
   xmlns="http://www.w3.org/2000/svg"
   xmlns:sodipodi="http://sodipodi.sourceforge.net/DTD/sodipodi-0.dtd"
   xmlns:inkscape="http://www.inkscape.org/namespaces/inkscape"
   version="1.1"
   id="Capa_1"
   x="0px"
   y="0px"
   viewBox="0 0 512 512"
   style="enable-background:new 0 0 512 512;"
   xml:space="preserve"
   sodipodi:docname="instagram.svg"
   inkscape:version="0.92.2 5c3e80d, 2017-08-06"><metadata
     id="metadata4925"><rdf:RDF><cc:Work
         rdf:about=""><dc:format>image/svg+xml</dc:format><dc:type
           rdf:resource="http://purl.org/dc/dcmitype/StillImage" /><dc:title></dc:title></cc:Work></rdf:RDF></metadata><defs
     id="defs4923" /><sodipodi:namedview
     pagecolor="#ffffff"
     bordercolor="#666666"
     borderopacity="1"
     objecttolerance="10"
     gridtolerance="10"
     guidetolerance="10"
     inkscape:pageopacity="0"
     inkscape:pageshadow="2"
     inkscape:window-width="1440"
     inkscape:window-height="795"
     id="namedview4921"
     showgrid="false"
     inkscape:zoom="1.1367188"
     inkscape:cx="178.45305"
     inkscape:cy="246.7287"
     inkscape:window-x="0"
     inkscape:window-y="1"
     inkscape:window-maximized="1"
     inkscape:current-layer="Capa_1" /><g
     id="g4876"
     style="fill:#ffffff"><g
       id="g4874"
       style="fill:#ffffff"><path
         d="M 352,0 H 160 C 71.648,0 0,71.648 0,160 v 192 c 0,88.352 71.648,160 160,160 h 192 c 88.352,0 160,-71.648 160,-160 V 160 C 512,71.648 440.352,0 352,0 Z m 112,352 c 0,61.76 -50.24,112 -112,112 H 160 C 98.24,464 48,413.76 48,352 V 160 C 48,98.24 98.24,48 160,48 h 192 c 61.76,0 112,50.24 112,112 z"
         id="path4872"
         inkscape:connector-curvature="0"
         style="fill:#ffffff" /></g></g><g
     id="g4882"
     style="fill:#ffffff"><g
       id="g4880"
       style="fill:#ffffff"><path
         d="m 256,128 c -70.688,0 -128,57.312 -128,128 0,70.688 57.312,128 128,128 70.688,0 128,-57.312 128,-128 0,-70.688 -57.312,-128 -128,-128 z m 0,208 c -44.096,0 -80,-35.904 -80,-80 0,-44.128 35.904,-80 80,-80 44.096,0 80,35.872 80,80 0,44.096 -35.904,80 -80,80 z"
         id="path4878"
         inkscape:connector-curvature="0"
         style="fill:#ffffff" /></g></g><g
     id="g4888"
     style="fill:#ffffff"><g
       id="g4886"
       style="fill:#ffffff"><circle
         cx="393.60001"
         cy="118.4"
         r="17.056"
         id="circle4884"
         style="fill:#ffffff" /></g></g><g
     id="g4890" /><g
     id="g4892" /><g
     id="g4894" /><g
     id="g4896" /><g
     id="g4898" /><g
     id="g4900" /><g
     id="g4902" /><g
     id="g4904" /><g
     id="g4906" /><g
     id="g4908" /><g
     id="g4910" /><g
     id="g4912" /><g
     id="g4914" /><g
     id="g4916" /><g
     id="g4918" /></svg>